<mxfile host="app.diagrams.net" modified="2023-05-25T06:44:02.246Z" agent="Mozilla/5.0 (Windows NT 10.0; Win64; x64) AppleWebKit/537.36 (KHTML, like Gecko) Chrome/113.0.0.0 Safari/537.36" etag="gazP3BqmoimW5TbLbp-k" version="21.3.3" type="github">
  <diagram name="第 1 页" id="hh1M_U4kgw8uVr2m7ZFz">
    <mxGraphModel dx="1050" dy="541" grid="1" gridSize="10" guides="1" tooltips="1" connect="1" arrows="1" fold="1" page="1" pageScale="1" pageWidth="827" pageHeight="1169" math="0" shadow="0">
      <root>
        <mxCell id="0" />
        <mxCell id="1" parent="0" />
        <mxCell id="6V4agyQiF8QJGDCOOBDe-1" value="" style="rounded=0;whiteSpace=wrap;html=1;" vertex="1" parent="1">
          <mxGeometry x="30" y="145" width="810" height="510" as="geometry" />
        </mxCell>
        <mxCell id="6V4agyQiF8QJGDCOOBDe-2" value="工作台" style="rounded=0;whiteSpace=wrap;html=1;" vertex="1" parent="1">
          <mxGeometry x="60" y="230" width="110" height="40" as="geometry" />
        </mxCell>
        <mxCell id="6V4agyQiF8QJGDCOOBDe-3" value="作品管理" style="rounded=0;whiteSpace=wrap;html=1;" vertex="1" parent="1">
          <mxGeometry x="60" y="280" width="110" height="40" as="geometry" />
        </mxCell>
        <mxCell id="6V4agyQiF8QJGDCOOBDe-4" value="作品评价" style="rounded=0;whiteSpace=wrap;html=1;" vertex="1" parent="1">
          <mxGeometry x="60" y="330" width="110" height="40" as="geometry" />
        </mxCell>
        <mxCell id="6V4agyQiF8QJGDCOOBDe-5" value="&lt;font style=&quot;font-size: 24px;&quot;&gt;主界面&lt;/font&gt;" style="rounded=0;whiteSpace=wrap;html=1;" vertex="1" parent="1">
          <mxGeometry x="200" y="230" width="580" height="400" as="geometry" />
        </mxCell>
        <mxCell id="6V4agyQiF8QJGDCOOBDe-6" value="" style="rounded=0;whiteSpace=wrap;html=1;" vertex="1" parent="1">
          <mxGeometry x="44" y="160" width="740" height="50" as="geometry" />
        </mxCell>
        <mxCell id="6V4agyQiF8QJGDCOOBDe-8" value="退出" style="rounded=0;whiteSpace=wrap;html=1;" vertex="1" parent="1">
          <mxGeometry x="600" y="172.5" width="60" height="25" as="geometry" />
        </mxCell>
        <mxCell id="6V4agyQiF8QJGDCOOBDe-9" value="控制台" style="rounded=0;whiteSpace=wrap;html=1;" vertex="1" parent="1">
          <mxGeometry x="680" y="172.5" width="46" height="25" as="geometry" />
        </mxCell>
      </root>
    </mxGraphModel>
  </diagram>
</mxfile>
